<mxfile host="app.diagrams.net" modified="2023-03-04T19:17:43.933Z" agent="5.0 (Macintosh; Intel Mac OS X 10_15_7) AppleWebKit/605.1.15 (KHTML, like Gecko) Version/15.4 Safari/605.1.15" etag="oNwejjMMX32Q3T3b4qPd" version="21.0.2" type="github">
  <diagram name="Page-1" id="WvSSQb0seS6lPPq7U4Gz">
    <mxGraphModel dx="1366" dy="766" grid="1" gridSize="10" guides="1" tooltips="1" connect="1" arrows="1" fold="1" page="1" pageScale="1" pageWidth="850" pageHeight="1100" math="0" shadow="0">
      <root>
        <mxCell id="0" />
        <mxCell id="1" parent="0" />
        <mxCell id="-d-hnmhowhYl7v4XqWfw-1" value="&lt;font style=&quot;font-size: 11px;&quot; data-font-src=&quot;https://www.ctan.org/tex-archive/fonts/tex-gyre/opentype&quot; face=&quot;Gyre Pagella&quot;&gt;(Contacting a professor to discuss a grade)&lt;/font&gt;" style="rounded=0;whiteSpace=wrap;html=1;" vertex="1" parent="1">
          <mxGeometry x="340" y="40" width="120" height="60" as="geometry" />
        </mxCell>
        <mxCell id="-d-hnmhowhYl7v4XqWfw-2" value="SELECTION" style="rounded=0;whiteSpace=wrap;html=1;" vertex="1" parent="1">
          <mxGeometry x="340" y="140" width="120" height="60" as="geometry" />
        </mxCell>
        <mxCell id="-d-hnmhowhYl7v4XqWfw-3" value="Email" style="rounded=0;whiteSpace=wrap;html=1;" vertex="1" parent="1">
          <mxGeometry x="50" y="230" width="120" height="30" as="geometry" />
        </mxCell>
        <mxCell id="-d-hnmhowhYl7v4XqWfw-4" value="Forum" style="rounded=0;whiteSpace=wrap;html=1;" vertex="1" parent="1">
          <mxGeometry x="240" y="230" width="120" height="30" as="geometry" />
        </mxCell>
        <mxCell id="-d-hnmhowhYl7v4XqWfw-5" value="In-Person" style="rounded=0;whiteSpace=wrap;html=1;" vertex="1" parent="1">
          <mxGeometry x="440" y="230" width="120" height="30" as="geometry" />
        </mxCell>
        <mxCell id="-d-hnmhowhYl7v4XqWfw-6" value="Phone Call" style="rounded=0;whiteSpace=wrap;html=1;" vertex="1" parent="1">
          <mxGeometry x="650" y="230" width="120" height="30" as="geometry" />
        </mxCell>
        <mxCell id="-d-hnmhowhYl7v4XqWfw-7" value="Find email address in directory" style="rounded=1;whiteSpace=wrap;html=1;" vertex="1" parent="1">
          <mxGeometry x="50" y="290" width="120" height="30" as="geometry" />
        </mxCell>
        <mxCell id="-d-hnmhowhYl7v4XqWfw-8" value="Compose the email" style="rounded=1;whiteSpace=wrap;html=1;" vertex="1" parent="1">
          <mxGeometry x="50" y="350" width="120" height="30" as="geometry" />
        </mxCell>
        <mxCell id="-d-hnmhowhYl7v4XqWfw-9" value="Send the email" style="rounded=1;whiteSpace=wrap;html=1;" vertex="1" parent="1">
          <mxGeometry x="50" y="410" width="120" height="30" as="geometry" />
        </mxCell>
        <mxCell id="-d-hnmhowhYl7v4XqWfw-10" value="Wait for a response" style="rounded=1;whiteSpace=wrap;html=1;" vertex="1" parent="1">
          <mxGeometry x="50" y="470" width="120" height="30" as="geometry" />
        </mxCell>
        <mxCell id="-d-hnmhowhYl7v4XqWfw-11" value="Read and follow-up on response" style="rounded=1;whiteSpace=wrap;html=1;" vertex="1" parent="1">
          <mxGeometry x="50" y="530" width="120" height="30" as="geometry" />
        </mxCell>
        <mxCell id="-d-hnmhowhYl7v4XqWfw-12" value="Access the class forum" style="rounded=1;whiteSpace=wrap;html=1;" vertex="1" parent="1">
          <mxGeometry x="240" y="290" width="120" height="30" as="geometry" />
        </mxCell>
        <mxCell id="-d-hnmhowhYl7v4XqWfw-13" value="Write the body of a post" style="rounded=1;whiteSpace=wrap;html=1;" vertex="1" parent="1">
          <mxGeometry x="240" y="350" width="120" height="30" as="geometry" />
        </mxCell>
        <mxCell id="-d-hnmhowhYl7v4XqWfw-14" value="Change the vizualisation settings (annonymity and privacy)" style="rounded=1;whiteSpace=wrap;html=1;" vertex="1" parent="1">
          <mxGeometry x="240" y="410" width="120" height="30" as="geometry" />
        </mxCell>
        <mxCell id="-d-hnmhowhYl7v4XqWfw-15" value="Post" style="rounded=1;whiteSpace=wrap;html=1;" vertex="1" parent="1">
          <mxGeometry x="240" y="470" width="120" height="30" as="geometry" />
        </mxCell>
        <mxCell id="-d-hnmhowhYl7v4XqWfw-16" value="Wait for a response" style="rounded=1;whiteSpace=wrap;html=1;" vertex="1" parent="1">
          <mxGeometry x="240" y="530" width="120" height="30" as="geometry" />
        </mxCell>
        <mxCell id="-d-hnmhowhYl7v4XqWfw-17" value="Read and reply to the responses" style="rounded=1;whiteSpace=wrap;html=1;" vertex="1" parent="1">
          <mxGeometry x="240" y="590" width="120" height="30" as="geometry" />
        </mxCell>
        <mxCell id="-d-hnmhowhYl7v4XqWfw-18" value="Look up the office hours" style="rounded=1;whiteSpace=wrap;html=1;" vertex="1" parent="1">
          <mxGeometry x="440" y="290" width="120" height="30" as="geometry" />
        </mxCell>
        <mxCell id="-d-hnmhowhYl7v4XqWfw-19" value="Wait for the office hours" style="rounded=1;whiteSpace=wrap;html=1;" vertex="1" parent="1">
          <mxGeometry x="440" y="350" width="120" height="30" as="geometry" />
        </mxCell>
        <mxCell id="-d-hnmhowhYl7v4XqWfw-20" value="Go to the office at the respective time" style="rounded=1;whiteSpace=wrap;html=1;" vertex="1" parent="1">
          <mxGeometry x="440" y="410" width="120" height="30" as="geometry" />
        </mxCell>
        <mxCell id="-d-hnmhowhYl7v4XqWfw-21" value="Discuss" style="rounded=1;whiteSpace=wrap;html=1;" vertex="1" parent="1">
          <mxGeometry x="440" y="470" width="120" height="30" as="geometry" />
        </mxCell>
        <mxCell id="-d-hnmhowhYl7v4XqWfw-22" value="Look up contact details in the secretary office" style="rounded=1;whiteSpace=wrap;html=1;" vertex="1" parent="1">
          <mxGeometry x="650" y="290" width="120" height="30" as="geometry" />
        </mxCell>
        <mxCell id="-d-hnmhowhYl7v4XqWfw-23" value="Wait for opening hours" style="rounded=1;whiteSpace=wrap;html=1;" vertex="1" parent="1">
          <mxGeometry x="650" y="350" width="120" height="30" as="geometry" />
        </mxCell>
        <mxCell id="-d-hnmhowhYl7v4XqWfw-24" value="Contact the secretary office" style="rounded=1;whiteSpace=wrap;html=1;" vertex="1" parent="1">
          <mxGeometry x="650" y="410" width="120" height="30" as="geometry" />
        </mxCell>
        <mxCell id="-d-hnmhowhYl7v4XqWfw-25" value="Ask to be put in touch with the professor" style="rounded=1;whiteSpace=wrap;html=1;" vertex="1" parent="1">
          <mxGeometry x="650" y="470" width="120" height="30" as="geometry" />
        </mxCell>
        <mxCell id="-d-hnmhowhYl7v4XqWfw-26" value="Discuss" style="rounded=1;whiteSpace=wrap;html=1;" vertex="1" parent="1">
          <mxGeometry x="650" y="530" width="120" height="30" as="geometry" />
        </mxCell>
        <mxCell id="-d-hnmhowhYl7v4XqWfw-27" value="Conversation was had on the grade" style="rounded=0;whiteSpace=wrap;html=1;" vertex="1" parent="1">
          <mxGeometry x="365" y="760" width="120" height="60" as="geometry" />
        </mxCell>
      </root>
    </mxGraphModel>
  </diagram>
</mxfile>
